<svg width="1274" height="237" viewBox="0 0 1274 237" fill="none" xmlns="http://www.w3.org/2000/svg">
<path d="M554.986 225.931V28.5801H641.538C653.943 28.5801 665.22 31.305 675.37 36.756C685.519 42.0184 693.602 49.5361 699.616 59.3104C705.627 68.8961 708.642 80.1733 708.642 93.142C708.642 106.298 705.259 117.952 698.488 128.101C691.91 138.062 682.982 145.487 671.705 150.374L692.849 193.227C694.353 196.234 695.951 198.49 697.642 199.994C699.522 201.309 702.153 201.967 705.541 201.967H719.637V225.931H701.307C693.977 225.931 687.493 224.051 681.854 220.292C676.404 216.533 671.893 211.458 668.321 205.068L644.639 156.858C642.76 157.046 640.692 157.233 638.437 157.422C636.37 157.422 634.208 157.422 631.952 157.422H582.051V225.931H554.986ZM582.051 133.458H637.873C645.956 133.458 653.286 131.86 659.864 128.665C666.63 125.47 671.893 120.864 675.652 114.851C679.599 108.836 681.572 101.6 681.572 93.142C681.572 84.4955 679.599 77.1653 675.652 71.1515C671.705 65.1366 666.442 60.5314 659.864 57.3369C653.286 54.1414 646.049 52.5441 638.155 52.5441H582.051V133.458Z" fill="white"/>
<path d="M492.016 225.931C481.302 225.931 471.999 223.676 464.105 219.165C456.398 214.465 450.383 208.169 446.061 200.275C441.925 192.193 439.859 183.171 439.859 173.21V52.5441H379.808V28.5801H526.975V52.5441H466.924V176.593C466.924 183.923 469.179 190.032 473.69 194.919C478.389 199.617 484.591 201.967 492.298 201.967H505.266V225.931H492.016Z" fill="white"/>
<path d="M217.153 225.931V201.967H302.578C309.157 201.967 314.795 200.463 319.494 197.456C324.193 194.261 327.858 190.219 330.489 185.333C333.121 180.446 334.436 175.277 334.436 169.827C334.436 164.188 333.121 159.019 330.489 154.321C328.046 149.434 324.475 145.581 319.776 142.762C315.265 139.754 309.72 138.251 303.142 138.251H265.927C254.838 138.251 245.064 135.995 236.606 131.485C228.148 126.785 221.476 120.395 216.589 112.313C211.891 104.043 209.541 94.7393 209.541 84.4022C209.541 73.8765 211.796 64.3852 216.307 55.9273C221.007 47.4694 227.491 40.7963 235.76 35.9103C244.218 31.0231 253.898 28.5801 264.799 28.5801H348.532V52.5441H267.337C261.134 52.5441 255.684 54.047 250.985 57.055C246.286 59.8743 242.715 63.6326 240.271 68.3322C237.828 72.8431 236.606 77.7291 236.606 82.9926C236.606 88.0673 237.734 92.9534 239.989 97.6529C242.434 102.164 245.91 105.829 250.421 108.648C255.12 111.467 260.477 112.877 266.491 112.877H304.551C316.392 112.877 326.542 115.226 335 119.925C343.458 124.624 349.942 131.014 354.453 139.097C358.964 147.178 361.219 156.388 361.219 166.726C361.219 178.191 358.871 188.434 354.171 197.456C349.66 206.289 343.176 213.244 334.718 218.319C326.26 223.394 316.581 225.931 305.679 225.931H217.153Z" fill="white"/>
<path d="M0 225.935L67.0993 47.4737C70.1062 39.7683 74.2419 34.1297 79.5043 30.5578C84.7666 26.9871 90.8758 25.2012 97.8297 25.2012C104.784 25.2012 110.893 26.9871 116.155 30.5578C121.606 33.941 125.741 39.4864 128.56 47.1917L195.941 225.935H166.339L149.141 178.289H45.9546L28.4749 225.935H0ZM54.4125 154.325H140.965L105.724 56.4954C104.784 54.0524 103.75 52.1732 102.623 50.8568C101.495 49.5415 99.8975 48.8833 97.8297 48.8833C95.9505 48.8833 94.4465 49.5415 93.3188 50.8568C92.1911 52.1732 91.251 54.0524 90.4995 56.4954L54.4125 154.325Z" fill="white"/>
<path d="M737.583 225.935L804.683 47.4737C807.697 39.7683 811.828 34.1297 817.087 30.5578C822.357 26.9871 828.462 25.2012 835.413 25.2012C842.374 25.2012 848.479 26.9871 853.738 30.5578C859.193 33.941 863.324 39.4864 866.143 47.1917L933.525 225.935H903.922L886.724 178.289H783.538L766.058 225.935H737.583ZM791.996 154.325H878.548L843.307 56.4954C842.374 54.0524 841.333 52.1732 840.206 50.8568C839.078 49.5415 837.484 48.8833 835.413 48.8833C833.537 48.8833 832.03 49.5415 830.902 50.8568C829.774 52.1732 828.842 54.0524 828.083 56.4954L791.996 154.325Z" fill="white"/>
<path d="M1015.93 82.3226C1013.86 82.839 1012.49 86.4104 1012.06 88.1316C1037.01 88.5619 1088.86 89.2934 1096.61 88.7771C1104.35 88.2607 1102.85 92.0043 1101.13 93.9406C1098.76 96.7376 1093.25 103.235 1090.16 106.85C1087.06 110.464 1091.02 112.228 1093.38 112.659H1135.34C1142.05 112.659 1140.28 116.101 1138.56 117.822C1111.02 139.767 1053.62 185.336 1044.33 192.048C1035.03 198.761 1036.15 194.845 1037.87 192.048C1038.3 190.972 1040.2 187.014 1044.33 179.785C1048.46 172.556 1042.61 171.609 1039.17 172.039C1020.23 173.115 981.204 175.267 976.557 175.267C970.748 175.267 970.103 175.912 966.875 179.785C964.294 182.883 967.091 183.657 968.812 183.657C981.721 183.442 1008.96 183.012 1014.64 183.012C1020.32 183.012 1018.73 187.745 1017.22 190.112C1013.35 198.718 1004.96 217.737 1002.37 224.966C999.793 232.195 1004.74 231.42 1007.54 230.129L1012.7 227.548C1030.99 217.436 1068.73 196.566 1073.37 193.984C1078.02 191.403 1083.49 192.909 1085.64 193.984C1115.11 208.399 1174.32 237.1 1175.35 236.584C1176.39 236.067 1175.78 230.775 1175.35 228.193C1169.98 203.666 1158.83 152.418 1157.28 143.64C1155.73 134.862 1158.79 132.237 1160.51 132.022L1214.73 102.977C1231.94 94.1558 1267.52 75.8682 1272.17 73.2864C1276.82 70.7047 1271.53 70.0592 1268.3 70.0592C1230 71.9955 1151.09 75.8682 1141.79 75.8682C1132.5 75.8682 1129.74 72.4258 1129.53 70.7047C1123.93 49.8353 1112.49 7.06385 1111.45 2.93301C1110.42 -1.19783 1108.44 -0.0790615 1107.58 0.996679C1095.1 21.866 1069.5 64.7666 1066.92 69.4137C1064.34 74.061 1058.53 76.5136 1055.95 77.1591C1043.47 78.6651 1017.99 81.8063 1015.93 82.3226Z" fill="white"/>
</svg>
