<svg width="309" height="237" viewBox="0 0 309 237" fill="none" xmlns="http://www.w3.org/2000/svg">
<path d="M50.9291 82.3226C48.8637 82.839 47.4868 86.4104 47.0565 88.1316C72.0136 88.5619 123.864 89.2934 131.61 88.7771C139.355 88.2607 137.849 92.0043 136.128 93.9406C133.761 96.7376 128.253 103.235 125.155 106.85C122.057 110.464 126.016 112.228 128.382 112.659H170.336C177.049 112.659 175.285 116.101 173.563 117.822C146.025 139.767 88.623 185.336 79.3286 192.048C70.0342 198.761 71.153 194.845 72.8742 192.048C73.3045 190.972 75.1978 187.014 79.3286 179.785C83.4595 172.556 77.6074 171.609 74.1651 172.039C55.2321 173.115 16.2042 175.267 11.557 175.267C5.748 175.267 5.1026 175.912 1.87538 179.785C-0.706397 182.883 2.09053 183.657 3.81171 183.657C16.7206 183.442 43.9583 183.012 49.6382 183.012C55.3181 183.012 53.7261 187.745 52.22 190.112C48.3474 198.718 39.9566 217.737 37.3748 224.966C34.793 232.195 39.7414 231.42 42.5384 230.129L47.7019 227.548C65.9895 217.436 103.726 196.566 108.374 193.984C113.021 191.403 118.486 192.909 120.637 193.984C150.112 208.399 209.321 237.1 210.354 236.584C211.387 236.067 210.784 230.775 210.354 228.193C204.975 203.666 193.83 152.418 192.281 143.64C190.732 134.862 193.787 132.237 195.509 132.022L249.726 102.977C266.938 94.1558 302.523 75.8682 307.17 73.2864C311.818 70.7047 306.525 70.0592 303.298 70.0592C265.001 71.9955 186.085 75.8682 176.791 75.8682C167.496 75.8682 164.742 72.4258 164.527 70.7047C158.933 49.8353 147.488 7.06385 146.455 2.93301C145.422 -1.19783 143.443 -0.0790615 142.582 0.996679C130.104 21.866 104.501 64.7666 101.919 69.4137C99.3375 74.061 93.5285 76.5136 90.9467 77.1591C78.4681 78.6651 52.9946 81.8063 50.9291 82.3226Z" fill="white"/>
</svg>
